<?xml version="1.0" standalone="no"?>
<!DOCTYPE svg PUBLIC "-//W3C//DTD SVG 20010904//EN"
 "http://www.w3.org/TR/2001/REC-SVG-20010904/DTD/svg10.dtd">
<svg version="1.0" xmlns="http://www.w3.org/2000/svg"
 width="916.000000pt" height="916.000000pt" viewBox="0 0 916.000000 916.000000"
 preserveAspectRatio="xMidYMid meet">
<metadata>
Created by potrace 1.14, written by Peter Selinger 2001-2017
</metadata>
<g transform="translate(0.000000,916.000000) scale(0.100000,-0.100000)"
fill="#000000" stroke="none">
<path d="M4359 9156 c-2 -2 -53 -9 -114 -15 -60 -6 -132 -16 -160 -21 -43 -8
-205 -29 -340 -44 -123 -14 -209 -28 -226 -37 -11 -6 -48 -17 -82 -24 -34 -8
-78 -18 -97 -24 -19 -5 -73 -19 -120 -31 -47 -12 -100 -29 -118 -36 -18 -8
-42 -14 -54 -14 -12 0 -38 -5 -57 -11 -84 -27 -127 -41 -146 -49 -11 -4 -45
-18 -75 -30 -138 -56 -284 -153 -321 -213 -10 -18 -19 -50 -19 -73 0 -45 -17
-59 -80 -67 -44 -5 -127 -26 -160 -41 -59 -25 -173 -120 -316 -261 -56 -55
-116 -111 -134 -125 -17 -14 -53 -45 -80 -70 -27 -25 -82 -74 -122 -110 -40
-36 -93 -87 -118 -113 -25 -27 -74 -79 -110 -116 -36 -38 -94 -108 -130 -157
-76 -103 -190 -275 -190 -285 0 -13 -74 -114 -159 -219 -92 -113 -139 -177
-163 -225 -8 -16 -22 -43 -31 -60 -9 -16 -30 -60 -47 -97 -16 -38 -44 -97 -60
-133 -17 -35 -30 -67 -30 -70 0 -3 -9 -25 -19 -48 -11 -24 -23 -56 -27 -72 -4
-17 -10 -35 -15 -40 -4 -6 -16 -33 -27 -60 -11 -28 -38 -88 -60 -135 -22 -47
-47 -112 -57 -145 -9 -33 -21 -69 -26 -80 -25 -59 -39 -116 -39 -170 0 -33 -5
-80 -11 -105 -10 -42 -16 -99 -39 -336 -4 -50 -13 -100 -18 -110 -6 -11 -16
-39 -23 -64 -7 -25 -19 -52 -26 -61 -7 -8 -13 -22 -13 -29 0 -13 -15 -66 -31
-105 -4 -11 -10 -155 -14 -320 -4 -245 -3 -321 10 -415 9 -63 20 -147 25 -186
16 -129 42 -207 113 -339 59 -109 137 -272 137 -285 0 -9 4 -20 9 -25 4 -6 23
-46 40 -90 18 -44 36 -89 41 -100 5 -11 21 -51 35 -90 15 -38 35 -89 45 -111
11 -23 22 -55 26 -70 3 -16 33 -96 66 -179 33 -82 66 -166 73 -185 56 -146 69
-177 83 -200 32 -47 42 -65 48 -80 26 -64 79 -163 101 -192 16 -19 39 -50 53
-68 14 -19 33 -42 43 -52 10 -10 36 -48 58 -85 22 -36 49 -78 58 -92 10 -14
31 -45 46 -69 16 -24 40 -55 55 -70 14 -15 44 -49 66 -77 21 -27 42 -52 45
-55 3 -3 33 -43 67 -90 33 -47 73 -103 89 -124 30 -41 131 -147 173 -181 87
-70 150 -114 187 -130 24 -11 43 -22 43 -27 0 -4 8 -8 18 -8 10 0 22 -4 27 -9
6 -5 28 -14 50 -21 22 -6 63 -22 90 -36 28 -13 79 -37 115 -54 36 -17 92 -46
125 -64 33 -19 80 -40 105 -46 25 -7 59 -18 75 -25 17 -8 56 -25 88 -39 32
-14 62 -26 67 -26 6 0 43 -17 82 -38 40 -21 102 -49 138 -61 71 -25 88 -32
140 -54 19 -8 62 -23 95 -32 33 -10 78 -26 100 -36 22 -10 69 -28 105 -39 36
-12 83 -30 105 -40 22 -10 60 -23 85 -30 25 -7 54 -16 65 -20 94 -34 120 -41
235 -60 36 -6 85 -18 109 -26 24 -8 104 -19 176 -23 73 -4 138 -12 146 -17 27
-16 278 -27 649 -28 309 -1 400 2 515 17 138 18 241 41 260 58 5 5 18 9 30 9
11 0 43 12 70 25 28 14 56 25 64 25 7 0 60 16 117 35 82 28 119 35 178 35 41
0 99 6 128 14 78 20 413 194 431 223 4 7 13 13 20 13 7 0 33 20 58 44 25 24
68 56 95 71 27 15 61 36 76 46 14 11 30 19 35 19 5 0 27 13 49 30 21 16 43 30
47 30 8 0 110 67 187 122 25 18 65 53 90 78 25 25 55 53 67 61 42 29 138 126
223 224 91 106 158 180 342 375 64 69 153 171 197 227 44 56 85 105 91 108 6
4 16 17 21 28 5 12 23 42 39 67 16 25 34 54 39 65 5 12 16 27 26 35 9 7 26 31
37 53 18 36 79 130 191 293 23 34 65 97 92 139 28 43 63 96 78 119 15 23 32
50 37 61 6 11 14 27 19 35 5 8 12 22 15 30 3 8 19 38 35 65 17 28 38 66 47 85
21 42 66 113 76 120 4 3 18 39 32 80 20 63 25 104 31 250 6 173 12 240 34 435
24 207 -4 1224 -40 1475 -6 41 -15 113 -20 160 -12 126 -19 170 -34 225 -8 28
-19 70 -26 95 -14 54 -57 187 -69 215 -35 86 -50 126 -50 138 0 12 -26 66 -73
152 -21 38 -87 183 -87 192 0 3 -22 51 -49 107 -27 56 -56 121 -64 146 -84
240 -92 256 -163 317 -73 62 -256 290 -297 371 -18 34 -40 77 -49 95 -9 17
-17 39 -18 47 0 8 -7 24 -15 34 -8 11 -15 28 -15 38 0 10 -4 26 -9 36 -8 17
-30 67 -49 112 -33 80 -45 101 -68 117 -13 10 -41 31 -62 46 -20 16 -82 51
-137 78 -55 27 -125 63 -155 80 -30 17 -80 45 -110 61 -30 17 -77 48 -105 70
-93 73 -210 151 -280 186 -38 20 -81 43 -95 53 -95 64 -259 141 -425 196 -33
11 -91 33 -130 47 -38 15 -95 36 -126 46 -31 10 -65 23 -75 29 -26 15 -152 48
-254 67 -47 8 -108 22 -136 30 -28 8 -61 14 -73 14 -11 0 -29 4 -39 9 -9 5
-44 16 -77 26 -33 9 -69 21 -80 25 -11 5 -54 16 -95 25 -41 8 -88 20 -105 25
-16 5 -95 18 -175 30 -80 11 -176 27 -215 35 -38 8 -81 15 -95 15 -15 0 -31 5
-37 11 -6 6 -53 14 -104 19 -94 9 -352 14 -360 6z"/>
</g>
</svg>
