<svg width="32px" height="32px" xmlns="http://www.w3.org/2000/svg" viewBox="0 0 1024 1024" style="width: 32px; height: 32px;" clip-rule="evenodd" fill-rule="evenodd" version="1.1"><g><path stroke="null" id="svg_1" fill="#FFFFFF" d="m415.621,543.356l125.593,0c0,-29.528 -13.923,-46.824 -13.923,-46.824l-108.996,0c2.59,-53.493 4.91,-122.15 5.739,-147.65l103.677,0s-0.561,-43.871 -12.091,-43.871l-182.242,0s10.971,-57.374 25.594,-82.7c0,0 -54.417,-2.938 -72.98,69.622c-18.562,72.56 -46.404,116.43 -49.356,124.446c-2.953,8.013 16.031,3.795 24.044,0c8.015,-3.797 44.294,-16.876 54.84,-67.496l56.35,0c0.76,32.082 2.99,130.397 2.287,147.649l-116.007,0c-16.45,11.81 -21.936,46.824 -21.936,46.824l132.592,0c-5.53,36.615 -15.239,83.813 -28.817,108.835c-21.513,39.655 -32.904,75.934 -110.525,138.368c0,0 -12.657,9.28 26.576,5.906c39.231,-3.372 76.356,-13.498 102.087,-64.963c13.378,-26.756 27.213,-60.697 38.006,-95.121l-0.04,0.12l109.26,125.795s14.343,-33.747 3.798,-70.87l-80.994,-90.698l-27.42,20.279l-0.031,0.099c7.615,-26.7 13.092,-53.095 14.795,-76.061c0.042,-0.553 0.084,-1.119 0.121,-1.689l-0.001,0zm151.745,-247.626l0,435.35l45.77,0l18.753,52.405l79.328,-52.405l99.978,0l0,-435.35l-243.829,0zm196.724,388.523l-51.968,0l-64.817,42.817l-15.319,-42.817l-16.176,0l0,-339.94l148.28,0l0,339.94z"/><g id="svg_2"><path fill="#1b61de" d="m940.2695,796.85502c0,78.652 -63.771,142.422 -142.421,142.422l-569.703,0c-78.655,0 -142.427,-63.772 -142.427,-142.422l0,-569.7c0,-78.658 63.772,-142.432 142.427,-142.432l569.704,0c78.658,0 142.432,63.772 142.432,142.431l-0.01,569.701l-0.002,0zm-524.729,-252.519l125.593,0c0,-29.528 -13.923,-46.824 -13.923,-46.824l-108.996,0c2.59,-53.493 4.91,-122.15 5.739,-147.65l103.677,0s-0.561,-43.871 -12.091,-43.871l-182.242,0s10.971,-57.374 25.594,-82.7c0,0 -54.417,-2.938 -72.98,69.622c-18.562,72.56 -46.404,116.43 -49.356,124.446c-2.953,8.013 16.031,3.795 24.044,0c8.015,-3.797 44.294,-16.876 54.84,-67.496l56.35,0c0.76,32.082 2.99,130.397 2.287,147.649l-116.007,0c-16.45,11.81 -21.936,46.824 -21.936,46.824l132.592,0c-5.53,36.615 -15.239,83.813 -28.817,108.835c-21.513,39.655 -32.904,75.934 -110.525,138.368c0,0 -12.657,9.28 26.576,5.906c39.231,-3.372 76.356,-13.498 102.087,-64.963c13.378,-26.756 27.213,-60.697 38.006,-95.121l-0.04,0.12l109.26,125.795s14.343,-33.747 3.798,-70.87l-80.994,-90.698l-27.42,20.279l-0.031,0.099c7.615,-26.7 13.092,-53.095 14.795,-76.061c0.042,-0.553 0.084,-1.119 0.121,-1.689l-0.001,0zm151.745,-247.626l0,435.35l45.77,0l18.753,52.405l79.328,-52.405l99.978,0l0,-435.35l-243.829,0zm196.724,388.523l-51.968,0l-64.817,42.817l-15.319,-42.817l-16.176,0l0,-339.94l148.28,0l0,339.94zm0,0" id="svg_3"/></g> </g></svg>